<mxfile host="app.diagrams.net" modified="2021-02-23T05:23:17.587Z" agent="5.0 (Windows NT 10.0; Win64; x64) AppleWebKit/537.36 (KHTML, like Gecko) Chrome/88.0.4324.182 Safari/537.36" etag="CJ4LIBjVIXrB4YBPoC3K" version="14.4.2" type="github">
  <diagram id="DgOZ0ZBlZkzmCgMb5FOK" name="Page-1">
    <mxGraphModel dx="1221" dy="689" grid="1" gridSize="10" guides="1" tooltips="1" connect="1" arrows="1" fold="1" page="1" pageScale="1" pageWidth="1100" pageHeight="850" math="0" shadow="0">
      <root>
        <mxCell id="0" />
        <mxCell id="1" parent="0" />
        <mxCell id="kRIhXTrUBMo4nAtgMBx_-1" value="Title" style="rounded=0;whiteSpace=wrap;html=1;" vertex="1" parent="1">
          <mxGeometry x="120" y="220" width="140" height="30" as="geometry" />
        </mxCell>
        <mxCell id="kRIhXTrUBMo4nAtgMBx_-2" value="Link" style="rounded=0;whiteSpace=wrap;html=1;" vertex="1" parent="1">
          <mxGeometry x="100" y="80" width="550" height="30" as="geometry" />
        </mxCell>
        <mxCell id="kRIhXTrUBMo4nAtgMBx_-3" value="Image Table" style="text;html=1;align=center;verticalAlign=middle;resizable=0;points=[];autosize=1;fontSize=20;" vertex="1" parent="1">
          <mxGeometry x="325" y="40" width="120" height="30" as="geometry" />
        </mxCell>
        <mxCell id="kRIhXTrUBMo4nAtgMBx_-4" value="Date Image Taken" style="rounded=0;whiteSpace=wrap;html=1;" vertex="1" parent="1">
          <mxGeometry x="650" y="80" width="110" height="30" as="geometry" />
        </mxCell>
        <mxCell id="kRIhXTrUBMo4nAtgMBx_-6" value="Trading Surfboards for Snowboards" style="rounded=0;whiteSpace=wrap;html=1;" vertex="1" parent="1">
          <mxGeometry x="120" y="250" width="140" height="60" as="geometry" />
        </mxCell>
        <mxCell id="kRIhXTrUBMo4nAtgMBx_-7" value="https://eoimages.gsfc.nasa.gov/images/imagerecords/147000/147895/hawaii_oli_2021037_lrg.jpg" style="rounded=0;html=1;whiteSpace=wrap;" vertex="1" parent="1">
          <mxGeometry x="100" y="110" width="550" height="30" as="geometry" />
        </mxCell>
        <mxCell id="kRIhXTrUBMo4nAtgMBx_-8" value="02/06/2021" style="rounded=0;whiteSpace=wrap;html=1;" vertex="1" parent="1">
          <mxGeometry x="650" y="110" width="110" height="30" as="geometry" />
        </mxCell>
        <mxCell id="kRIhXTrUBMo4nAtgMBx_-12" value="Published Date" style="rounded=0;whiteSpace=wrap;html=1;" vertex="1" parent="1">
          <mxGeometry x="10" y="220" width="110" height="30" as="geometry" />
        </mxCell>
        <mxCell id="kRIhXTrUBMo4nAtgMBx_-13" value="02/08/2021" style="rounded=0;whiteSpace=wrap;html=1;" vertex="1" parent="1">
          <mxGeometry x="10" y="250" width="110" height="60" as="geometry" />
        </mxCell>
        <mxCell id="kRIhXTrUBMo4nAtgMBx_-14" value="Image Description Table" style="text;html=1;align=center;verticalAlign=middle;resizable=0;points=[];autosize=1;fontSize=20;" vertex="1" parent="1">
          <mxGeometry x="145" y="180" width="230" height="30" as="geometry" />
        </mxCell>
        <mxCell id="kRIhXTrUBMo4nAtgMBx_-15" value="Short Description" style="rounded=0;whiteSpace=wrap;html=1;" vertex="1" parent="1">
          <mxGeometry x="260" y="220" width="250" height="30" as="geometry" />
        </mxCell>
        <mxCell id="kRIhXTrUBMo4nAtgMBx_-16" value="Three storms in three weeks have left abundant snow atop Hawaiiâ€™s tallest volcanic mountains." style="rounded=0;whiteSpace=wrap;html=1;" vertex="1" parent="1">
          <mxGeometry x="260" y="250" width="250" height="60" as="geometry" />
        </mxCell>
        <mxCell id="kRIhXTrUBMo4nAtgMBx_-17" value="Data Type" style="rounded=0;whiteSpace=wrap;html=1;" vertex="1" parent="1">
          <mxGeometry x="10" y="80" width="90" height="30" as="geometry" />
        </mxCell>
        <mxCell id="kRIhXTrUBMo4nAtgMBx_-18" value="Image" style="rounded=0;whiteSpace=wrap;html=1;" vertex="1" parent="1">
          <mxGeometry x="10" y="110" width="90" height="30" as="geometry" />
        </mxCell>
      </root>
    </mxGraphModel>
  </diagram>
</mxfile>
